# This file uses centimeters as units for non-parametric coordinates.

mtllib Finestra.mtl
g default
v -27.515832 159.397493 -180.795066
v -27.515835 263.091032 -180.795034
v -27.515839 159.397493 -391.017007
v -27.515835 263.091032 -391.017038
vt 0.003363 0.005692
vt 0.995695 0.005563
vt 0.995758 0.495038
vt 0.003427 0.495167
vn 1.000000 -0.000000 -0.000000
vn 1.000000 -0.000000 -0.000000
vn 1.000000 -0.000000 -0.000000
vn 1.000000 -0.000000 -0.000000
s off
g Esterno Finestra
usemtl initialShadingGroup
f 4/1/1 2/2/2 1/3/3 3/4/4
g default
v -13.091524 158.331421 -178.633743
v -13.091524 264.157104 -178.633743
v -13.091524 158.331421 -393.178345
v -13.091524 264.157104 -393.178345
vt 0.003363 0.505327
vt 0.995695 0.505198
vt 0.995758 0.994672
vt 0.003427 0.994802
vn 1.000000 0.000000 0.000000
vn 1.000000 0.000000 0.000000
vn 1.000000 0.000000 0.000000
vn 1.000000 0.000000 0.000000
s off
g Finestra Finestra1
usemtl blinn1SG
f 8/5/5 6/6/6 5/7/7 7/8/8
