# This file uses centimeters as units for non-parametric coordinates.

mtllib Pc_Tower.mtl
g default
v 0.887573 1.794619 0.327059
v 0.918856 1.763335 0.327059
v 0.906470 1.813516 0.327059
v 0.937754 1.782233 0.327059
v 0.906470 1.813516 0.250665
v 0.937754 1.782233 0.250665
v 0.887573 1.794619 0.250665
v 0.918856 1.763335 0.250665
vt 0.407013 0.818812
vt 0.407173 0.802900
vt 0.412742 0.802958
vt 0.412577 0.818869
vt 0.427526 0.803111
vt 0.427358 0.819024
vt 0.421792 0.818964
vt 0.421958 0.803051
vt 0.397957 0.802808
vt 0.397798 0.818720
vt 0.421736 0.824530
vt 0.412521 0.824438
vt 0.412795 0.797394
vt 0.422011 0.797481
vn 0.000000 0.000000 1.000000
vn 0.000000 0.000000 1.000000
vn 0.000000 0.000000 1.000000
vn 0.000000 0.000000 1.000000
vn 0.707107 0.707107 0.000000
vn 0.707107 0.707107 0.000000
vn 0.707107 0.707107 0.000000
vn 0.707107 0.707107 0.000000
vn 0.000000 0.000000 -1.000000
vn 0.000000 0.000000 -1.000000
vn 0.000000 0.000000 -1.000000
vn 0.000000 0.000000 -1.000000
vn -0.707107 -0.707107 0.000000
vn -0.707107 -0.707107 0.000000
vn -0.707107 -0.707107 0.000000
vn -0.707107 -0.707107 0.000000
vn 0.707107 -0.707107 0.000000
vn 0.707107 -0.707107 0.000000
vn 0.707107 -0.707107 0.000000
vn 0.707107 -0.707107 0.000000
vn -0.707107 0.707107 0.000000
vn -0.707107 0.707107 0.000000
vn -0.707107 0.707107 0.000000
vn -0.707107 0.707107 0.000000
s off
g pCube3
usemtl initialShadingGroup
f 1/11/1 2/12/2 4/4/3 3/7/4
f 3/7/5 4/4/6 6/3/7 5/8/8
f 5/8/9 6/3/10 8/13/11 7/14/12
f 7/9/13 8/2/14 2/1/15 1/10/16
f 2/1/17 8/2/18 6/3/19 4/4/20
f 7/5/21 1/6/22 3/7/23 5/8/24
g default
v 0.887573 1.794619 -0.226873
v 0.918856 1.763335 -0.226873
v 0.906470 1.813516 -0.226873
v 0.937754 1.782233 -0.226873
v 0.906470 1.813516 -0.303266
v 0.937754 1.782233 -0.303266
v 0.887573 1.794619 -0.303266
v 0.918856 1.763335 -0.303266
vt 0.590040 0.814778
vt 0.590045 0.798864
vt 0.595610 0.798865
vt 0.595609 0.814778
vt 0.580830 0.798862
vt 0.580824 0.814775
vt 0.575257 0.814773
vt 0.575262 0.798859
vt 0.604824 0.814780
vt 0.604826 0.798866
vt 0.590039 0.820344
vt 0.580823 0.820343
vt 0.580830 0.793296
vt 0.590046 0.793296
vn 0.000000 0.000000 1.000000
vn 0.000000 0.000000 1.000000
vn 0.000000 0.000000 1.000000
vn 0.000000 0.000000 1.000000
vn 0.707107 0.707107 0.000000
vn 0.707107 0.707107 0.000000
vn 0.707107 0.707107 0.000000
vn 0.707107 0.707107 0.000000
vn 0.000000 0.000000 -1.000000
vn 0.000000 0.000000 -1.000000
vn 0.000000 0.000000 -1.000000
vn 0.000000 0.000000 -1.000000
vn -0.707107 -0.707107 0.000000
vn -0.707107 -0.707107 0.000000
vn -0.707107 -0.707107 0.000000
vn -0.707107 -0.707107 0.000000
vn 0.707107 -0.707107 0.000000
vn 0.707107 -0.707107 0.000000
vn 0.707107 -0.707107 0.000000
vn 0.707107 -0.707107 0.000000
vn -0.707107 0.707107 0.000000
vn -0.707107 0.707107 0.000000
vn -0.707107 0.707107 0.000000
vn -0.707107 0.707107 0.000000
s off
g pCube4
usemtl initialShadingGroup
f 9/20/25 10/15/26 12/25/27 11/26/28
f 11/23/29 12/18/30 14/17/31 13/24/32
f 13/27/33 14/28/34 16/16/35 15/19/36
f 15/19/37 16/16/38 10/15/39 9/20/40
f 10/15/41 16/16/42 14/17/43 12/18/44
f 15/19/45 9/20/46 11/21/47 13/22/48
g default
v -0.990835 0.000000 0.500000
v -0.990835 0.000000 -0.500000
v -0.990835 1.872646 0.392021
v -0.990835 1.764666 0.500000
v 0.790482 1.872646 0.392021
v 0.898466 1.764662 0.500000
v -0.990835 1.764666 -0.500000
v -0.990835 1.872646 -0.392021
v 0.790482 1.872646 -0.392021
v 0.898466 1.764662 -0.500000
v 0.990835 0.000000 0.407636
v 0.898471 0.000000 0.500000
v 0.990835 1.672293 0.407636
v 0.990835 0.000000 -0.407636
v 0.898471 0.000000 -0.500000
v 0.990835 1.672293 -0.407636
v -0.990835 0.042000 -0.458000
v -0.990835 0.042000 0.458000
v -0.990835 1.747269 0.458000
v -0.990835 1.830646 0.374624
v -0.990835 1.830646 -0.374624
v -0.990835 1.747269 -0.458000
v -0.888973 0.042000 -0.458000
v -0.888973 0.042000 0.458000
v -0.888973 1.747269 0.458000
v -0.888973 1.830646 0.374624
v -0.888973 1.830646 -0.374624
v -0.888973 1.747269 -0.458000
vt 0.424391 0.342773
vt 0.420291 0.011448
vt 0.583235 0.012963
vt 0.581869 0.340654
vt 0.394311 0.012190
vt 0.395241 0.368494
vt 0.609194 0.013485
vt 0.611309 0.364755
vt 0.585313 0.392330
vt 0.422785 0.396405
vt 0.017595 0.018425
vt 0.023419 0.370288
vt 0.144221 0.412483
vt 0.326259 0.411661
vt 0.429913 0.763984
vt 0.592459 0.760704
vt 0.398254 0.764623
vt 0.624118 0.760065
vt 0.883348 0.389535
vt 0.883768 0.766301
vt 0.865370 0.784741
vt 0.702788 0.784923
vt 0.684348 0.766524
vt 0.683927 0.389757
vt 0.336239 0.752337
vt 0.320081 0.769079
vt 0.165981 0.773591
vt 0.148850 0.757889
vt 0.978607 0.364122
vt 0.981398 0.016473
vt 0.119515 0.391640
vt 0.348888 0.388609
vt 0.340361 0.397649
vt 0.128532 0.400539
vt 0.364528 0.763071
vt 0.355710 0.759301
vt 0.332705 0.795031
vt 0.328636 0.786472
vt 0.154458 0.800795
vt 0.158216 0.791995
vt 0.121905 0.770524
vt 0.130525 0.766230
vn 0.000000 0.000000 1.000000
vn 0.000000 0.000000 1.000000
vn 0.000000 0.000000 1.000000
vn 0.000000 0.000000 1.000000
vn 0.000000 1.000000 0.000000
vn 0.000000 1.000000 0.000000
vn 0.000000 1.000000 0.000000
vn 0.000000 1.000000 0.000000
vn 0.000000 0.000000 -1.000000
vn 0.000000 0.000000 -1.000000
vn 0.000000 0.000000 -1.000000
vn 0.000000 0.000000 -1.000000
vn 0.000000 -1.000000 0.000000
vn 0.000000 -1.000000 0.000000
vn 0.000000 -1.000000 0.000000
vn 0.000000 -1.000000 0.000000
vn 0.000000 -1.000000 0.000000
vn 0.000000 -1.000000 0.000000
vn 1.000000 0.000000 0.000000
vn 1.000000 0.000000 0.000000
vn 1.000000 0.000000 0.000000
vn 1.000000 0.000000 0.000000
vn -1.000000 -0.000000 0.000000
vn -1.000000 -0.000000 0.000000
vn -1.000000 -0.000000 0.000000
vn -1.000000 -0.000000 0.000000
vn -1.000000 -0.000000 0.000000
vn -1.000000 -0.000000 0.000000
vn 0.707107 0.707107 0.000000
vn 0.707107 0.707107 0.000000
vn 0.707107 0.707107 0.000000
vn 0.707107 0.707107 0.000000
vn 0.707107 0.707107 0.000000
vn 0.707107 0.707107 0.000000
vn 0.000001 0.707099 0.707114
vn 0.000001 0.707099 0.707114
vn 0.000001 0.707099 0.707114
vn 0.000001 0.707099 0.707114
vn 0.000001 0.707099 -0.707114
vn 0.000001 0.707099 -0.707114
vn 0.000001 0.707099 -0.707114
vn 0.000001 0.707099 -0.707114
vn 0.707099 0.000001 0.707115
vn 0.707099 0.000001 0.707115
vn 0.707099 0.000001 0.707115
vn 0.707099 0.000001 0.707115
vn 0.707099 0.000001 -0.707115
vn 0.707099 0.000001 -0.707115
vn 0.707099 0.000001 -0.707115
vn 0.707099 0.000001 -0.707115
vn -1.000000 -0.000000 0.000000
vn -1.000000 -0.000000 0.000000
vn -1.000000 -0.000000 0.000000
vn -1.000000 -0.000000 0.000000
vn -1.000000 0.000000 0.000000
vn -1.000000 0.000000 0.000000
vn -1.000000 0.000002 0.000000
vn -1.000000 0.000002 0.000000
vn -1.000000 0.000001 0.000000
vn -1.000000 0.000001 0.000000
vn -1.000000 0.000000 0.000000
vn -1.000000 0.000000 0.000000
vn 0.000000 1.000000 0.000000
vn 0.000000 1.000000 0.000000
vn 0.000000 1.000000 0.000000
vn 0.000000 1.000000 0.000000
vn 0.000000 0.000000 -1.000000
vn 0.000000 0.000000 -1.000000
vn 0.000000 0.000000 -1.000000
vn 0.000000 0.000000 -1.000000
vn 0.000000 -0.707107 -0.707107
vn 0.000000 -0.707107 -0.707107
vn 0.000000 -0.707107 -0.707107
vn 0.000000 -0.707107 -0.707107
vn 0.000000 -1.000000 0.000000
vn 0.000000 -1.000000 0.000000
vn 0.000000 -1.000000 0.000000
vn 0.000000 -1.000000 0.000000
vn 0.000000 -0.707107 0.707107
vn 0.000000 -0.707107 0.707107
vn 0.000000 -0.707107 0.707107
vn 0.000000 -0.707107 0.707107
vn 0.000000 0.000000 1.000000
vn 0.000000 0.000000 1.000000
vn 0.000000 0.000000 1.000000
vn 0.000000 0.000000 1.000000
s off
g pCube1
usemtl texturedFacets4
f 17/39/49 28/33/50 22/34/51 20/40/52
usemtl initialShadingGroup
f 25/37/53 24/44/54 19/43/55 21/38/56
f 23/57/57 26/36/58 31/35/59 18/58/60
f 18/47/61 31/48/62 30/49/63 27/50/64 28/51/65 17/52/66
f 29/29/67 27/30/68 30/31/69 32/32/70
usemtl texturedFacets3
f 39/41/71 40/42/72 41/53/73 42/54/74 43/55/75 44/56/76
usemtl initialShadingGroup
f 26/36/77 25/37/78 21/38/79 22/34/80 29/29/81 32/32/82
f 19/43/83 20/45/84 22/34/85 21/38/86
f 24/44/87 25/37/88 26/36/89 23/46/90
f 28/33/91 27/30/92 29/29/93 22/34/94
f 30/31/95 31/35/96 26/36/97 32/32/98
s 1
usemtl texturedFacets3
f 18/59/99 17/60/100 34/61/101 33/62/102
f 17/60/100 20/63/103 35/64/104 34/61/101
f 20/63/103 19/65/105 36/66/106 35/64/104
f 19/65/105 24/67/107 37/68/108 36/66/106
f 24/67/107 23/69/109 38/70/110 37/68/108
f 23/69/109 18/59/99 33/62/102 38/70/110
s off
f 33/62/111 34/61/112 40/42/113 39/41/114
f 34/61/115 35/64/116 41/53/117 40/42/118
f 35/64/119 36/66/120 42/54/121 41/53/122
f 36/66/123 37/68/124 43/55/125 42/54/126
f 37/68/127 38/70/128 44/56/129 43/55/130
f 38/70/131 33/62/132 39/41/133 44/56/134
